{
"accessors": [
    {
        "bufferView": 0,
        "byteOffset": 0,
        "componentType": 5123,
        "count": 36,
        "max": [
            35.0
        ],
        "min": [
            0.0
        ],
        "normalized": false,
        "type": "SCALAR"
    },
    {
        "bufferView": 1,
        "byteOffset": 0,
        "componentType": 5126,
        "count": 36,
        "max": [
            1.0,
            1.0,
            1.0000009536743164
        ],
        "min": [
            -1.0,
            -1.0,
            -1.0
        ],
        "normalized": false,
        "type": "VEC3"
    },
    {
        "bufferView": 2,
        "byteOffset": 0,
        "componentType": 5126,
        "count": 36,
        "max": [
            1.0,
            1.0,
            1.0
        ],
        "min": [
            -1.0,
            -1.0,
            -1.0
        ],
        "normalized": false,
        "type": "VEC3"
    },
    {
        "bufferView": 3,
        "byteOffset": 0,
        "componentType": 5126,
        "count": 36,
        "max": [
            1.0,
            -0.0,
            -0.0,
            1.0
        ],
        "min": [
            0.0,
            -0.0,
            -1.0,
            -1.0
        ],
        "normalized": false,
        "type": "VEC4"
    },
    {
        "bufferView": 4,
        "byteOffset": 0,
        "componentType": 5126,
        "count": 36,
        "max": [
            1.0,
            1.0
        ],
        "min": [
            -1.0,
            -1.0
        ],
        "normalized": false,
        "type": "VEC2"
    }
],
"bufferViews": [
    {
        "buffer": 0,
        "byteLength": 72,
        "byteOffset": 0,
        "target": 34963
    },
    {
        "buffer": 0,
        "byteLength": 432,
        "byteOffset": 72,
        "target": 34962
    },
    {
        "buffer": 0,
        "byteLength": 432,
        "byteOffset": 504,
        "target": 34962
    },
    {
        "buffer": 0,
        "byteLength": 576,
        "byteOffset": 936,
        "target": 34962
    },
    {
        "buffer": 0,
        "byteLength": 288,
        "byteOffset": 1512,
        "target": 34962
    }
],
"buffers": [
    {
        "byteLength": 1800,
        "uri": "Cube.bin"
    }
],
"materials": [
    {
        "name": "Cube",
        "pbrMetallicRoughness": {
            "baseColorFactor": [
                1.0,
                1.0,
                1.0,
                1.0
            ],
            "baseColorTexture": {
                "index": 0,
                "texCoord": 0
            },
            "metallicFactor": 1.0,
            "metallicRoughnessTexture": {
                "index": 1,
                "texCoord": 0
            },
            "roughnessFactor": 1.0
        }
    }
],
"images": [
    {
        "uri": "Cube_BaseColor.png"
    },
    {
        "uri": "Cube_MetallicRoughness.png"
    }
],
"textures": [
    {
        "sampler": 0,
        "source": 0
    },
    {
        "sampler": 0,
        "source": 1
    }
],
"samplers": [
    {
        "wrapS": 10497,
        "wrapT": 10497
    }
],
"scenes": [
    {
        "name": "",
        "nodes": [
            0
        ]
    }
],
"nodes": [
    {
        "mesh": 0,
        "name": "Cube"
    }
],
"meshes": [
    {
        "name": "Cube",
        "primitives": [
            {
                "attributes": {
                    "NORMAL": 2,
                    "POSITION": 1,
                    "TEXCOORD_0": 4
                },
                "indices": 0,
                "material": 0,
                "mode": 4
            }
        ]
    }
],
"asset": {
    "generator": "VKTS glTF 2.0 exporter",
    "version": "2.0"
}

}