{
"accessors": [
    {
        "bufferView": 0,
        "byteOffset": 0,
        "componentType": 5123,
        "count": 3,
        "normalized": false,
        "type": "SCALAR"
    },
    {
        "bufferView": 1,
        "byteOffset": 0,
        "componentType": 5126,
        "count": 3,
        "max": [
            1.0,
            1.0,
            0.0
        ],
        "min": [
            0.0,
            0.0,
            0.0
        ],
        "normalized": false,
        "type": "VEC3"
    }
],
"bufferViews": [
    {
        "buffer": 0,
        "byteLength": 6,
        "byteOffset": 0,
        "target": 34963
    },
    {
        "buffer": 0,
        "byteLength": 36,
        "byteOffset": 8,
        "target": 34962
    }
],
"buffers": [
    {
        "byteLength": 44,
        "uri": "0.bin"
    }
],
"materials": [
    {
        "name": "",
        "pbrMetallicRoughness": {
            "baseColorFactor": [
                0.0,
                0.0,
                1.0,
                1.0
            ],
            "metallicFactor": 0.20000000298023224,
            "roughnessFactor": 0.4000000059604645
        }
    }
],
"scenes": [
    {
        "name": "",
        "nodes": [
            0
        ]
    }
],
"nodes": [
    {
        "mesh": 0
    }
],
"meshes": [
    {
        "primitives": [
            {
                "attributes": {
                    "POSITION": 1
                },
                "indices": 0,
                "material": 0,
                "mode": 4
            }
        ]
    }
],
"asset": {
    "version": "2.0"
}

}